<?xml version="1.0" encoding="utf-8"?>
<!-- Generator: Adobe Illustrator 19.1.0, SVG Export Plug-In . SVG Version: 6.00 Build 0)  -->
<!DOCTYPE svg PUBLIC "-//W3C//DTD SVG 1.1//EN" "http://www.w3.org/Graphics/SVG/1.1/DTD/svg11.dtd">
<svg version="1.1" id="Layer_1" xmlns="http://www.w3.org/2000/svg" xmlns:xlink="http://www.w3.org/1999/xlink" x="0px" y="0px"
	 viewBox="0 0 150 150" style="enable-background:new 0 0 150 150;" xml:space="preserve">
<style type="text/css">
	.Drop_x0020_Shadow{fill:none;}
	.Outer_x0020_Glow_x0020_5_x0020_pt{fill:none;}
	.Blue_x0020_Neon{fill:none;stroke:#8AACDA;stroke-width:7;stroke-linecap:round;stroke-linejoin:round;}
	.Chrome_x0020_Highlight{fill:url(#SVGID_1_);stroke:#FFFFFF;stroke-width:0.3629;stroke-miterlimit:1;}
	.Jive_GS{fill:#FFDD00;}
	.Alyssa_GS{fill:#A6D0E4;}
	.st0{fill:url(#SVGID_2_);}
	.st1{fill:#0E300B;}
	.st2{fill:#185014;}
	.st3{fill:#FFFFFF;}
</style>
<linearGradient id="SVGID_1_" gradientUnits="userSpaceOnUse" x1="0" y1="0" x2="4.489659e-011" y2="-1">
	<stop  offset="0" style="stop-color:#656565"/>
	<stop  offset="0.618" style="stop-color:#1B1B1B"/>
	<stop  offset="0.6292" style="stop-color:#545454"/>
	<stop  offset="0.9831" style="stop-color:#3E3E3E"/>
</linearGradient>
<linearGradient id="SVGID_2_" gradientUnits="userSpaceOnUse" x1="75" y1="150.1652" x2="75" y2="0.1652">
	<stop  offset="0" style="stop-color:#F2F2DF"/>
	<stop  offset="0.1919" style="stop-color:#F5F5E6"/>
	<stop  offset="1" style="stop-color:#FFFFFF"/>
</linearGradient>
<rect x="0" y="0.2" class="st0" width="150" height="150"/>
<g>
	<path class="st1" d="M73.5,51.3l4.2,41.9c0.1,0.9,0.9,1.6,1.8,1.5c0.9-0.1,1.6-0.9,1.5-1.8L76.8,51c-0.1-0.9-0.9-1.6-1.8-1.5
		C74.1,49.6,73.4,50.4,73.5,51.3z M105.6,109L80.2,91.7c-0.5-0.3-1.1-0.4-1.6-0.1l-33.2,15.8c-0.8,0.4-1.2,1.4-0.8,2.2
		c0.4,0.8,1.4,1.2,2.2,0.8L79.2,95l24.6,16.8c0.7,0.5,1.8,0.3,2.3-0.4C106.6,110.6,106.4,109.5,105.6,109L105.6,109z"/>
	<path class="st2" d="M73.5,49.9l-29.8,58.5c-0.4,0.8-0.1,1.7,0.6,2.2l29.8,17.2c0.5,0.3,1.1,0.3,1.6,0c0.5-0.3,0.8-0.8,0.8-1.4
		l-0.1-87.2c0-0.9-0.7-1.6-1.6-1.6c-0.9,0-1.6,0.7-1.6,1.6l-0.1,11.3c0,0.3,0.1,0.5,0.2,0.7l29.1,58.5l-28.3,15.2
		c-0.8,0.4-1.1,1.4-0.7,2.2c0.4,0.8,1.4,1.1,2.2,0.7l29.7-15.9c0.8-0.4,1.1-1.4,0.7-2.2L76.5,50.1l0.1-10.9c0-0.4-0.2-0.9-0.5-1.2
		c-0.3-0.3-0.7-0.5-1.2-0.5c-0.4,0-0.9,0.2-1.2,0.5c-0.3,0.3-0.5,0.7-0.5,1.2l0.1,84.4l-26-15l29.1-57.2c0.4-0.8,0.1-1.8-0.7-2.2
		C74.9,48.7,73.9,49.1,73.5,49.9L73.5,49.9z M64.6,73.5l9.9,5.7c0.5,0.3,1.2,0.3,1.7,0l10-6.2c0.8-0.5,1-1.5,0.5-2.3
		c-0.5-0.8-1.5-1-2.3-0.5l-9.2,5.7l-9.1-5.2c-0.8-0.5-1.8-0.2-2.2,0.6C63.5,72,63.8,73,64.6,73.5L64.6,73.5z M54.9,91.4l19.6,11.7
		c0.5,0.3,1.1,0.3,1.6,0l19.8-10.6c0.8-0.4,1.1-1.4,0.7-2.2c-0.4-0.8-1.4-1.1-2.2-0.7l-19,10.2L56.6,88.5c-0.8-0.5-1.8-0.2-2.2,0.6
		C53.9,89.9,54.1,90.9,54.9,91.4L54.9,91.4z"/>
	<path class="st2" d="M61.3,37.3c0.5-4.5,2.5-7.9,5-10.2c2.6-2.3,5.8-3.6,9-3.6c2.9,0,5.8,1,8.2,3.1c2.4,2.1,4.4,5.5,5.3,10.3
		c0.2,0.9,1,1.5,1.9,1.3c0.9-0.2,1.5-1,1.3-1.9c-1-5.4-3.3-9.4-6.3-12.1c-3-2.7-6.7-4-10.3-4c-4,0-8.1,1.5-11.2,4.4
		c-3.2,2.9-5.5,7.1-6.1,12.3c-0.1,0.9,0.5,1.7,1.4,1.8C60.4,38.8,61.2,38.2,61.3,37.3L61.3,37.3z"/>
	<ellipse class="st3" cx="74.9" cy="37.8" rx="2" ry="2.1"/>
	<path class="st2" d="M76.9,37.8h-0.7c0,0.8-0.6,1.3-1.3,1.3c-0.7,0-1.3-0.6-1.3-1.3c0-0.8,0.6-1.3,1.3-1.3c0.7,0,1.3,0.6,1.3,1.3
		H76.9h0.7c0-1.5-1.2-2.8-2.7-2.8c-1.5,0-2.7,1.3-2.7,2.8c0,1.5,1.2,2.8,2.7,2.8c1.5,0,2.7-1.3,2.7-2.8H76.9z"/>
</g>
</svg>
