<?xml version="1.0" encoding="utf-8"?>
<!-- Generator: Adobe Illustrator 19.1.0, SVG Export Plug-In . SVG Version: 6.00 Build 0)  -->
<!DOCTYPE svg PUBLIC "-//W3C//DTD SVG 1.1//EN" "http://www.w3.org/Graphics/SVG/1.1/DTD/svg11.dtd">
<svg version="1.1" id="Layer_1" xmlns="http://www.w3.org/2000/svg" xmlns:xlink="http://www.w3.org/1999/xlink" x="0px" y="0px"
	 viewBox="0 0 300 300" style="enable-background:new 0 0 300 300;" xml:space="preserve">
<style type="text/css">
	.Drop_x0020_Shadow{fill:none;}
	.Outer_x0020_Glow_x0020_5_x0020_pt{fill:none;}
	.Blue_x0020_Neon{fill:none;stroke:#8AACDA;stroke-width:7;stroke-linecap:round;stroke-linejoin:round;}
	.Chrome_x0020_Highlight{fill:url(#SVGID_1_);stroke:#FFFFFF;stroke-width:0.3629;stroke-miterlimit:1;}
	.Jive_GS{fill:#FFDD00;}
	.Alyssa_GS{fill:#A6D0E4;}
	.st0{opacity:0.4;fill:#D1D1D1;}
	.st1{fill:url(#SVGID_2_);stroke:#D3D3D3;stroke-miterlimit:10;}
	.st2{fill:#0E300B;}
	.st3{fill:#185014;}
	.st4{fill:#FFFFFF;}
</style>
<linearGradient id="SVGID_1_" gradientUnits="userSpaceOnUse" x1="75" y1="75" x2="75" y2="74">
	<stop  offset="0" style="stop-color:#656565"/>
	<stop  offset="0.618" style="stop-color:#1B1B1B"/>
	<stop  offset="0.6292" style="stop-color:#545454"/>
	<stop  offset="0.9831" style="stop-color:#3E3E3E"/>
</linearGradient>
<path class="st0" d="M277.4,300H33.2c-12.5,0-22.6-10.1-22.6-22.6V33.2c0-12.5,10.1-22.6,22.6-22.6h244.2
	c12.5,0,22.6,10.1,22.6,22.6v244.2C300,289.9,289.9,300,277.4,300z"/>
<linearGradient id="SVGID_2_" gradientUnits="userSpaceOnUse" x1="145.6696" y1="290" x2="145.6696" y2="1">
	<stop  offset="0" style="stop-color:#F2F2DF"/>
	<stop  offset="0.1919" style="stop-color:#F5F5E6"/>
	<stop  offset="1" style="stop-color:#FFFFFF"/>
</linearGradient>
<path class="st1" d="M267.6,290H23.8c-12.5,0-22.6-10.1-22.6-22.6V23.6C1.2,11.1,11.3,1,23.8,1h243.8c12.5,0,22.6,10.1,22.6,22.6
	v243.8C290.2,279.9,280.1,290,267.6,290z"/>
<g>
	<path class="st2" d="M142.6,99.2l8.2,81.2c0.2,1.7,1.7,3,3.5,2.8c1.7-0.2,3-1.7,2.8-3.5l-8.2-81.2c-0.2-1.7-1.7-3-3.5-2.8
		C143.7,95.9,142.4,97.5,142.6,99.2z M204.7,211l-49.2-33.5c-0.9-0.6-2.1-0.7-3.1-0.2L88,207.9c-1.6,0.8-2.3,2.6-1.5,4.2
		c0.8,1.6,2.6,2.3,4.2,1.5l62.7-29.8l47.7,32.5c1.4,1,3.4,0.6,4.4-0.8C206.6,214,206.2,212,204.7,211L204.7,211z"/>
	<path class="st3" d="M142.5,96.4L84.8,209.8c-0.8,1.5-0.2,3.3,1.2,4.2l57.8,33.3c1,0.6,2.2,0.6,3.2,0c1-0.6,1.6-1.6,1.6-2.7
		l-0.1-168.8c0-1.7-1.4-3.2-3.2-3.2c-1.7,0-3.2,1.4-3.2,3.1L142,97.5c0,0.5,0.1,1,0.3,1.4l56.4,113.3l-54.8,29.4
		c-1.5,0.8-2.1,2.8-1.3,4.3c0.8,1.5,2.8,2.1,4.3,1.3l57.5-30.9c1.5-0.8,2.1-2.7,1.3-4.2L148.3,96.8l0.2-21.1c0-0.8-0.3-1.7-0.9-2.3
		c-0.6-0.6-1.4-0.9-2.2-0.9c-0.8,0-1.7,0.3-2.3,0.9c-0.6,0.6-0.9,1.4-0.9,2.2l0.1,163.3l-50.4-29l56.3-110.7
		c0.8-1.6,0.2-3.5-1.4-4.3C145.2,94.2,143.3,94.9,142.5,96.4L142.5,96.4z M125.2,142.1l19.2,11.1c1,0.6,2.3,0.6,3.2,0l19.4-12
		c1.5-0.9,2-2.9,1-4.4c-0.9-1.5-2.9-2-4.4-1l-17.8,11l-17.6-10.1c-1.5-0.9-3.5-0.4-4.3,1.2C123.2,139.3,123.7,141.3,125.2,142.1
		L125.2,142.1z M106.5,176.8l37.9,22.7c1,0.6,2.1,0.6,3.1,0.1L186,179c1.5-0.8,2.1-2.7,1.3-4.3c-0.8-1.5-2.7-2.1-4.3-1.3l-36.8,19.7
		l-36.4-21.7c-1.5-0.9-3.5-0.4-4.3,1.1C104.5,173.9,105,175.9,106.5,176.8L106.5,176.8z"/>
	<path class="st3" d="M118.9,72c1-8.6,4.7-15.3,9.7-19.8c5-4.5,11.3-6.9,17.5-6.9c5.6,0,11.2,1.9,15.8,6.1
		c4.6,4.1,8.5,10.6,10.3,19.9c0.3,1.7,2,2.8,3.7,2.5c1.7-0.3,2.8-2,2.5-3.7c-2-10.4-6.5-18.2-12.3-23.4c-5.8-5.2-13-7.7-20-7.7
		c-7.8,0-15.6,3-21.7,8.6c-6.1,5.5-10.6,13.7-11.8,23.7c-0.2,1.7,1,3.3,2.8,3.5C117.1,75,118.7,73.8,118.9,72L118.9,72z"/>
	<ellipse class="st4" cx="145.2" cy="73.1" rx="3.9" ry="4"/>
	<path class="st3" d="M149.1,73.1h-1.4c0,1.5-1.1,2.6-2.5,2.6c-1.4,0-2.5-1.1-2.5-2.6c0-1.5,1.1-2.6,2.5-2.6c1.4,0,2.5,1.1,2.5,2.6
		H149.1h1.4c0-2.9-2.3-5.4-5.3-5.4c-2.9,0-5.3,2.4-5.3,5.4c0,2.9,2.3,5.4,5.3,5.4c2.9,0,5.3-2.4,5.3-5.4H149.1z"/>
</g>
</svg>
